<svg width="32" height="33" viewBox="0 0 32 33" fill="none" xmlns="http://www.w3.org/2000/svg">
<circle cx="16" cy="16.5803" r="16" fill="url(#paint0_linear_401_162)"/>
<g clip-path="url(#clip0_401_162)">
<path d="M21.7617 12.0694C21.7262 11.9844 21.6837 11.9065 21.6342 11.8286C21.535 11.6798 21.4004 11.5453 21.2517 11.4461C21.1738 11.3965 21.0958 11.354 21.0108 11.3186C20.8408 11.2478 20.6567 11.2053 20.4583 11.2053H19.75V9.78859H18.3333V11.2053H12.6667V9.78859H11.25V11.2053H10.5417C10.2442 11.2053 9.975 11.2973 9.74833 11.4461C9.59958 11.5453 9.465 11.6798 9.36583 11.8286C9.31625 11.9065 9.27375 11.9844 9.23833 12.0694C9.1675 12.2394 9.125 12.4236 9.125 12.6219V22.5386C9.125 22.9143 9.27426 23.2746 9.53993 23.5403C9.80561 23.806 10.1659 23.9553 10.5417 23.9553H20.4583C20.6567 23.9553 20.8408 23.9128 21.0108 23.8419C21.0958 23.8065 21.1738 23.764 21.2517 23.7144C21.4004 23.6153 21.535 23.4807 21.6342 23.3319C21.7829 23.1053 21.875 22.829 21.875 22.5386V12.6219C21.875 12.4236 21.8325 12.2394 21.7617 12.0694ZM10.5417 22.5386V12.6219H20.4583V22.5386H10.5417ZM15.5 18.2036C14.0621 18.2036 11.25 18.9686 11.25 20.7394V21.8303H19.75V20.7465C19.75 18.9686 16.9379 18.2036 15.5 18.2036ZM12.8863 20.4136C13.375 20.0169 14.5721 19.6203 15.5 19.6203C16.4279 19.6203 17.6321 20.0169 18.1137 20.4136H12.8863ZM15.5 17.5803C16.6687 17.5803 17.625 16.624 17.625 15.4553C17.625 14.2865 16.6687 13.3303 15.5 13.3303C14.3312 13.3303 13.375 14.2865 13.375 15.4553C13.375 16.624 14.3312 17.5803 15.5 17.5803ZM15.5 14.7469C15.8896 14.7469 16.2083 15.0657 16.2083 15.4553C16.2083 15.8448 15.8896 16.1636 15.5 16.1636C15.1104 16.1636 14.7917 15.8448 14.7917 15.4553C14.7917 15.0657 15.1104 14.7469 15.5 14.7469Z" fill="white"/>
</g>
<defs>
<linearGradient id="paint0_linear_401_162" x1="16" y1="0.580261" x2="16" y2="32.5803" gradientUnits="userSpaceOnUse">
<stop stop-color="#4A154B"/>
<stop offset="1" stop-color="#4A154B"/>
</linearGradient>
<clipPath id="clip0_401_162">
<rect width="17" height="17" fill="white" transform="translate(7 9.08026)"/>
</clipPath>
</defs>
</svg>
