<svg width="49" height="49" viewBox="0 0 49 49" fill="none" xmlns="http://www.w3.org/2000/svg">
<g clip-path="url(#clip0_352_161)">
<path d="M24.0717 48.7627C17.7103 48.7609 11.6097 46.234 7.11021 41.737C2.61074 37.24 0.0803934 31.1409 0.0750732 24.7794C0.075073 18.4145 2.60307 12.3102 7.10313 7.80886C11.6032 3.30756 17.7068 0.777852 24.0717 0.776077C30.4378 0.776077 36.5432 3.30499 41.0447 7.80649C45.5462 12.308 48.0751 18.4133 48.0751 24.7794C48.0697 31.142 45.5385 37.2422 41.0376 41.7394C36.5366 46.2365 30.4343 48.7627 24.0717 48.7627Z" fill="#4A154B"/>
<g clip-path="url(#clip1_352_161)">
<path d="M12.9327 15.2652L21.9644 24.9989C22.2182 25.2733 22.5307 25.4931 22.8811 25.6437C23.2315 25.7943 23.6117 25.8722 23.9963 25.8722C24.3809 25.8722 24.7611 25.7943 25.1115 25.6437C25.4619 25.4931 25.7744 25.2733 26.0283 24.9989L34.9056 15.4326C34.9783 15.3582 35.0626 15.2947 35.1554 15.2442C34.7683 15.0838 34.3506 15.0006 33.9282 15H14.0865C13.683 15.0013 13.2836 15.0771 12.9106 15.2233L12.9327 15.2652Z" fill="white"/>
<path d="M36.5223 16.4025C36.4834 16.5041 36.4262 16.5985 36.3533 16.6816L27.476 26.2479C27.0402 26.7148 26.505 27.0886 25.9058 27.3446C25.3066 27.6006 24.6571 27.733 24 27.733C23.3429 27.733 22.6934 27.6006 22.0942 27.3446C21.495 27.0886 20.9598 26.7148 20.524 26.2479L11.485 16.5141L11.4409 16.4513C11.1521 16.9036 10.9996 17.4226 11 17.9515V31.1252C10.999 31.5079 11.0776 31.887 11.2311 32.2408C11.3847 32.5947 11.6103 32.9163 11.895 33.1872C12.1796 33.4581 12.5178 33.673 12.89 33.8197C13.2623 33.9664 13.6614 34.0419 14.0644 34.0419H33.9062C34.7208 34.0419 35.5022 33.7346 36.0782 33.1876C36.6543 32.6406 36.9779 31.8988 36.9779 31.1252V17.9166C36.9782 17.3814 36.8204 16.8568 36.5223 16.4025Z" fill="white"/>
</g>
</g>
<defs>
<clipPath id="clip0_352_161">
<rect width="48" height="48" fill="white" transform="translate(0.0750732 0.762695)"/>
</clipPath>
<clipPath id="clip1_352_161">
<rect width="26" height="19" fill="white" transform="translate(11 15)"/>
</clipPath>
</defs>
</svg>
