<svg width="32" height="33" viewBox="0 0 32 33" fill="none" xmlns="http://www.w3.org/2000/svg">
<circle cx="16" cy="16.5803" r="16" fill="url(#paint0_linear_308_319)"/>
<path d="M11.0683 22.921C10.6809 22.921 10.349 22.7831 10.0729 22.5074C9.79715 22.2312 9.6593 21.8994 9.6593 21.5119V11.6486C9.6593 11.2611 9.79715 10.9293 10.0729 10.6531C10.349 10.3774 10.6809 10.2395 11.0683 10.2395H20.9317C21.3192 10.2395 21.651 10.3774 21.9272 10.6531C22.2029 10.9293 22.3407 11.2611 22.3407 11.6486V21.5119C22.3407 21.8994 22.2029 22.2312 21.9272 22.5074C21.651 22.7831 21.3192 22.921 20.9317 22.921H11.0683ZM11.0683 21.5119H15.2955V11.6486H11.0683V21.5119ZM16.7045 21.5119H20.9317V16.5803H16.7045V21.5119ZM16.7045 15.1712H20.9317V11.6486H16.7045V15.1712Z" fill="white"/>
<defs>
<linearGradient id="paint0_linear_308_319" x1="16" y1="0.580261" x2="16" y2="32.5803" gradientUnits="userSpaceOnUse">
<stop stop-color="#4A154B"/>
<stop offset="1" stop-color="#4A154B"/>
</linearGradient>
</defs>
</svg>
