<svg width="32" height="33" viewBox="0 0 32 33" fill="none" xmlns="http://www.w3.org/2000/svg">
<circle cx="16" cy="16.5803" r="16" fill="url(#paint0_linear_399_191)"/>
<path d="M12.3338 24.081C11.8754 24.081 11.4828 23.9177 11.1561 23.591C10.8294 23.2643 10.6664 22.872 10.6669 22.4142V11.5797H9.8335V9.91289H14.0006V9.07947H19.0011V9.91289H23.1682V11.5797H22.3348V22.4142C22.3348 22.8726 22.1714 23.2651 21.8447 23.5918C21.518 23.9185 21.1258 24.0816 20.668 24.081H12.3338ZM20.668 11.5797H12.3338V22.4142H20.668V11.5797ZM14.0006 20.7473H15.6674V13.2466H14.0006V20.7473ZM17.3343 20.7473H19.0011V13.2466H17.3343V20.7473Z" fill="white"/>
<defs>
<linearGradient id="paint0_linear_399_191" x1="16" y1="0.580261" x2="16" y2="32.5803" gradientUnits="userSpaceOnUse">
<stop stop-color="#4A154B"/>
<stop offset="1" stop-color="#4A154B"/>
</linearGradient>
</defs>
</svg>
