<svg width="32" height="33" viewBox="0 0 32 33" fill="none" xmlns="http://www.w3.org/2000/svg">
<circle cx="16" cy="16.5803" r="16" fill="url(#paint0_linear_401_160)"/>
<g clip-path="url(#clip0_401_160)">
<path d="M11.625 22.8928C11.2812 22.8928 10.9869 22.7703 10.7419 22.5253C10.4973 22.2807 10.375 21.9865 10.375 21.6428V12.8928C10.375 12.549 10.4973 12.2546 10.7419 12.0096C10.9869 11.7651 11.2812 11.6428 11.625 11.6428H17.2031L15.9531 12.8928H11.625V21.6428H20.375V17.299L21.625 16.049V21.6428C21.625 21.9865 21.5027 22.2807 21.2581 22.5253C21.0131 22.7703 20.7188 22.8928 20.375 22.8928H11.625ZM18.6094 12.0021L19.5 12.8771L15.375 17.0021V17.8928H16.25L20.3906 13.7521L21.2812 14.6271L16.7812 19.1428H14.125V16.4865L18.6094 12.0021ZM21.2812 14.6271L18.6094 12.0021L20.1719 10.4396C20.4219 10.1896 20.7215 10.0646 21.0706 10.0646C21.4194 10.0646 21.7135 10.1896 21.9531 10.4396L22.8281 11.3303C23.0677 11.5698 23.1875 11.8615 23.1875 12.2053C23.1875 12.549 23.0677 12.8407 22.8281 13.0803L21.2812 14.6271Z" fill="white"/>
</g>
<defs>
<linearGradient id="paint0_linear_401_160" x1="16" y1="0.580261" x2="16" y2="32.5803" gradientUnits="userSpaceOnUse">
<stop stop-color="#4A154B"/>
<stop offset="1" stop-color="#4A154B"/>
</linearGradient>
<clipPath id="clip0_401_160">
<rect width="15" height="15" fill="white" transform="translate(8.5 8.08026)"/>
</clipPath>
</defs>
</svg>
