<svg width="32" height="33" viewBox="0 0 32 33" fill="none" xmlns="http://www.w3.org/2000/svg">
<circle cx="16" cy="16.5803" r="16" fill="url(#paint0_linear_401_161)"/>
<path d="M9.33331 16.5803L12.6666 19.2469V17.2469H18.6666V15.9136H12.6666V13.9136L9.33331 16.5803Z" fill="white"/>
<path d="M16.6673 10.5796C15.879 10.5774 15.0981 10.7317 14.3698 11.0334C13.6416 11.3352 12.9804 11.7785 12.4247 12.3376L13.3673 13.2803C14.2487 12.3989 15.4207 11.9129 16.6673 11.9129C17.914 11.9129 19.086 12.3989 19.9673 13.2803C20.8487 14.1616 21.3347 15.3336 21.3347 16.5803C21.3347 17.8269 20.8487 18.9989 19.9673 19.8803C19.086 20.7616 17.914 21.2476 16.6673 21.2476C15.4207 21.2476 14.2487 20.7616 13.3673 19.8803L12.4247 20.8229C13.5573 21.9563 15.064 22.5809 16.6673 22.5809C18.2707 22.5809 19.7773 21.9563 20.91 20.8229C22.0433 19.6903 22.668 18.1836 22.668 16.5803C22.668 14.9769 22.0433 13.4703 20.91 12.3376C20.3543 11.7785 19.6931 11.3352 18.9649 11.0334C18.2366 10.7317 17.4557 10.5774 16.6673 10.5796Z" fill="white"/>
<defs>
<linearGradient id="paint0_linear_401_161" x1="16" y1="0.580261" x2="16" y2="32.5803" gradientUnits="userSpaceOnUse">
<stop stop-color="#4A154B"/>
<stop offset="1" stop-color="#4A154B"/>
</linearGradient>
</defs>
</svg>
