<svg width="32" height="33" viewBox="0 0 32 33" fill="none" xmlns="http://www.w3.org/2000/svg">
<circle cx="16" cy="16.5803" r="16" fill="url(#paint0_linear_401_160)"/>
<g clip-path="url(#clip0_401_160)">
<path d="M20.4779 12.6032L18.2681 14.813M20.4779 12.6032C19.4231 11.5484 17.9925 10.9559 16.5008 10.9559C15.0091 10.9559 13.5785 11.5484 12.5238 12.6032M20.4779 12.6032C21.5326 13.658 22.1252 15.0886 22.1252 16.5802C22.1252 17.3188 21.9797 18.0502 21.697 18.7326C21.4144 19.415 21.0001 20.035 20.4779 20.5573M18.2681 14.813C17.7993 14.3442 17.1638 14.0805 16.5008 14.0805C15.8378 14.0805 15.2023 14.3442 14.7335 14.813M18.2681 14.813C18.7369 15.2817 19.0005 15.9173 19.0005 16.5802C19.0005 17.2432 18.7369 17.8788 18.2681 18.3475M18.2681 18.3475L20.4779 20.5573M18.2681 18.3475C17.7993 18.8163 17.1638 19.08 16.5008 19.08C15.8378 19.08 15.2023 18.8163 14.7335 18.3475M20.4779 20.5573C19.9556 21.0796 19.3355 21.4938 18.6532 21.7765C17.9708 22.0591 17.2394 22.2046 16.5008 22.2046C15.7622 22.2046 15.0308 22.0591 14.3485 21.7765C13.6661 21.4938 13.046 21.0796 12.5238 20.5573M14.7335 14.813L12.5238 12.6032M14.7335 14.813C14.2647 15.2817 14.0011 15.9173 14.0011 16.5802C14.0011 17.2432 14.2647 17.8788 14.7335 18.3475M12.5238 12.6032C11.469 13.658 10.8765 15.0886 10.8765 16.5802C10.8765 17.3188 11.0219 18.0502 11.3046 18.7326C11.5872 19.415 12.0015 20.035 12.5238 20.5573M14.7335 18.3475L12.5238 20.5573" stroke="white" stroke-width="1.24986" stroke-linecap="round" stroke-linejoin="round"/>
</g>
<defs>
<linearGradient id="paint0_linear_401_160" x1="16" y1="0.580261" x2="16" y2="32.5803" gradientUnits="userSpaceOnUse">
<stop stop-color="#4A154B"/>
<stop offset="1" stop-color="#4A154B"/>
</linearGradient>
<clipPath id="clip0_401_160">
<rect width="16" height="16" fill="white" transform="translate(8 8.58026)"/>
</clipPath>
</defs>
</svg>
