<svg width="49" height="50" viewBox="0 0 49 50" fill="none" xmlns="http://www.w3.org/2000/svg">
<g clip-path="url(#clip0_352_165)">
<path d="M24.0717 49.7627C17.7068 49.7609 11.6032 47.1785 7.10313 42.5834C2.60307 37.9883 0.075073 31.7568 0.0750732 25.2593C0.0768471 18.7629 2.60562 12.5332 7.10548 7.93958C11.6053 3.34597 17.708 0.764491 24.0717 0.76268C30.4366 0.76268 36.541 3.34336 41.0423 7.93716C45.5436 12.531 48.0733 18.7617 48.0751 25.2593C48.0751 31.758 45.5462 37.9905 41.0447 42.5858C36.5432 47.1811 30.4378 49.7627 24.0717 49.7627Z" fill="#4A154B"/>
<path fill-rule="evenodd" clip-rule="evenodd" d="M37.2278 24.583C37.1095 21.1867 35.7125 17.9679 33.3275 15.5968C30.9426 13.2258 27.7536 11.8853 24.4247 11.8545C21.0957 11.8237 17.8835 13.1049 15.4568 15.4314C13.0301 17.758 11.5761 20.9504 11.3976 24.3439C11.3976 24.5352 11.3976 24.7265 11.3976 24.9177C11.396 27.302 12.0348 29.641 13.2445 31.6806L10.9158 38.703L18.076 36.3804C20.0376 37.4811 22.2455 38.0432 24.4838 38.0119C26.722 37.9806 28.914 37.3568 30.8454 36.2017C32.7768 35.0465 34.3814 33.3995 35.5025 31.4216C36.6236 29.4438 37.2226 27.2027 37.2412 24.9177C37.2345 24.8016 37.2345 24.6923 37.2278 24.583ZM24.3127 35.9227C22.1885 35.9275 20.11 35.2931 18.3369 34.0988L14.1613 35.4651L15.4996 31.3664C14.1563 29.4933 13.4321 27.2323 13.4319 24.9109C13.4319 24.5488 13.4319 24.1936 13.4854 23.8384C13.7611 21.0877 15.0332 18.5412 17.0523 16.6981C19.0714 14.8549 21.692 13.8479 24.4005 13.8744C27.1091 13.9009 29.7103 14.959 31.6944 16.8413C33.6785 18.7237 34.9025 21.2946 35.1266 24.0502C35.1266 24.3371 35.1667 24.6171 35.1667 24.9109C35.1543 27.8394 34.0047 30.6433 31.9699 32.7076C29.9351 34.772 27.1814 35.9282 24.3127 35.9227Z" fill="white"/>
<path fill-rule="evenodd" clip-rule="evenodd" d="M30.2349 27.5614C29.9137 27.3974 28.3612 26.6187 28.0667 26.5162C27.7723 26.4137 27.5649 26.3523 27.3574 26.6733C27.15 26.9944 26.5343 27.7185 26.3537 27.9303C26.173 28.142 25.9856 28.1694 25.6845 28.0122C24.7506 27.6337 23.888 27.0929 23.1349 26.4137C22.4422 25.7709 21.8488 25.0247 21.375 24.2005C21.3372 24.1472 21.3108 24.0865 21.2974 24.0222C21.2839 23.9579 21.2839 23.8915 21.2971 23.8271C21.3103 23.7628 21.3366 23.702 21.3742 23.6487C21.4118 23.5953 21.46 23.5506 21.5155 23.5173C21.656 23.3671 21.83 23.1416 21.9906 22.9572L22.1044 22.8001C22.1796 22.6773 22.2467 22.5495 22.3051 22.4175C22.352 22.3319 22.3766 22.2355 22.3766 22.1374C22.3766 22.0394 22.352 21.9429 22.3051 21.8573C22.2315 21.6934 21.5958 20.1154 21.3281 19.4733C21.0605 18.8311 20.7995 18.9404 20.6121 18.9404C20.4248 18.9404 20.224 18.9063 20.0099 18.9063C19.8488 18.9109 19.6904 18.9491 19.5442 19.0184C19.3981 19.0877 19.2674 19.1867 19.16 19.3093C18.8033 19.6539 18.5209 20.0706 18.3308 20.5329C18.1407 20.9951 18.047 21.4927 18.0559 21.994C18.0624 22.3639 18.1164 22.7314 18.2165 23.087C18.4649 23.8882 18.8475 24.6394 19.3474 25.3071C19.508 25.5189 21.5423 28.8661 24.761 30.1572C27.9798 31.4483 27.9864 31.0111 28.5619 30.9565C29.1374 30.9018 30.4423 30.1846 30.7033 29.4263C30.9071 28.9472 30.9721 28.4186 30.8907 27.9029C30.7635 27.8005 30.5494 27.7185 30.2349 27.5614Z" fill="white"/>
</g>
<defs>
<clipPath id="clip0_352_165">
<rect width="48" height="49" fill="white" transform="translate(0.0750732 0.762695)"/>
</clipPath>
</defs>
</svg>
