<svg width="67" height="67" viewBox="0 0 67 67" fill="none" xmlns="http://www.w3.org/2000/svg">
<path d="M56.2478 10.8805L43.5417 23.4485M56.2478 10.8805C50.1828 4.88154 41.9569 1.51147 33.3798 1.51147C24.8027 1.51147 16.5767 4.88154 10.5118 10.8805M56.2478 10.8805C62.3127 16.8795 65.7198 25.0161 65.7198 33.4999C65.7198 37.7007 64.8833 41.8604 63.2581 45.7414C61.6328 49.6224 59.2508 53.149 56.2478 56.1194M43.5417 23.4485C40.8462 20.7822 37.1918 19.2828 33.3798 19.2828C29.5677 19.2828 25.9134 20.7822 23.2178 23.4485M43.5417 23.4485C46.2373 26.1147 47.7531 29.7293 47.7531 33.4999C47.7531 37.2706 46.2373 40.8852 43.5417 43.5514M43.5417 43.5514L56.2478 56.1194M43.5417 43.5514C40.8462 46.2177 37.1918 47.7171 33.3798 47.7171C29.5677 47.7171 25.9134 46.2177 23.2178 43.5514M56.2478 56.1194C53.2447 59.0898 49.6794 61.4459 45.7558 63.0535C41.8321 64.661 37.6267 65.4884 33.3798 65.4884C29.1328 65.4884 24.9275 64.661 21.0038 63.0535C17.0801 61.4459 13.5149 59.0898 10.5118 56.1194M23.2178 23.4485L10.5118 10.8805M23.2178 23.4485C20.5223 26.1147 19.0065 29.7293 19.0065 33.4999C19.0065 37.2706 20.5223 40.8852 23.2178 43.5514M10.5118 10.8805C4.4469 16.8795 1.0398 25.0161 1.03979 33.4999C1.03979 37.7007 1.87629 41.8604 3.50153 45.7414C5.12677 49.6224 7.50878 53.149 10.5118 56.1194M23.2178 43.5514L10.5118 56.1194" stroke="white" stroke-width="1.24986" stroke-linecap="round" stroke-linejoin="round"/>
</svg>
