<svg width="50" height="46" viewBox="0 0 50 46" fill="none" xmlns="http://www.w3.org/2000/svg">
<path d="M49.3515 43.0312C45.8529 37.2053 40.2529 32.8326 33.625 30.7516C36.8019 28.9254 39.2707 26.1414 40.6521 22.8274C42.0335 19.5134 42.2511 15.8526 41.2715 12.4074C40.2919 8.96218 38.1693 5.92319 35.2297 3.75725C32.2901 1.59131 28.6961 0.418228 25 0.418228C21.3038 0.418228 17.7099 1.59131 14.7703 3.75725C11.8307 5.92319 9.70805 8.96218 8.72845 12.4074C7.74884 15.8526 7.96646 19.5134 9.34787 22.8274C10.7293 26.1414 13.1981 28.9254 16.375 30.7516C9.74709 32.8326 4.14702 37.2053 0.64842 43.0312C0.501677 43.237 0.40055 43.4699 0.351394 43.7153C0.302239 43.9607 0.306117 44.2133 0.362786 44.4571C0.419454 44.701 0.527688 44.9309 0.680685 45.1324C0.833683 45.3339 1.02814 45.5026 1.25183 45.628C1.47552 45.7533 1.72362 45.8326 1.98053 45.8608C2.23744 45.889 2.49761 45.8656 2.74469 45.7919C2.99178 45.7183 3.22043 45.596 3.41629 45.4329C3.61215 45.2697 3.77098 45.0691 3.8828 44.8437C6.02588 41.264 9.1051 38.292 12.8116 36.2258C16.518 34.1597 20.7214 33.072 25 33.072C29.2786 33.072 33.4819 34.1597 37.1884 36.2258C40.8949 38.292 43.9741 41.264 46.1172 44.8437C46.229 45.0691 46.3878 45.2697 46.5837 45.4329C46.7795 45.596 47.0082 45.7183 47.2553 45.7919C47.5024 45.8656 47.7625 45.889 48.0194 45.8608C48.2763 45.8326 48.5244 45.7533 48.7481 45.628C48.9718 45.5026 49.1663 45.3339 49.3193 45.1324C49.4723 44.9309 49.5805 44.701 49.6372 44.4571C49.6938 44.2133 49.6977 43.9607 49.6486 43.7153C49.5994 43.4699 49.4983 43.237 49.3515 43.0312ZM11.875 16.75C11.875 14.2406 12.6448 11.7876 14.0869 9.7012C15.5291 7.61475 17.579 5.98856 19.9773 5.02828C22.3755 4.06799 25.0145 3.81673 27.5605 4.30628C30.1065 4.79583 32.4452 6.0042 34.2808 7.77858C36.1163 9.55296 37.3664 11.8137 37.8728 14.2748C38.3792 16.7359 38.1193 19.287 37.1259 21.6053C36.1325 23.9236 34.4502 25.9051 32.2918 27.2993C30.1334 28.6934 27.5959 29.4375 25 29.4375C21.519 29.4375 18.1806 28.1008 15.7192 25.7214C13.2578 23.342 11.875 20.1149 11.875 16.75Z" fill="#595959"/>
</svg>
